Nobile-Regular.ufo
<glyph name="exclam" format="1">
  <advance width="535"/>
  <unicode hex="0021"/>
  <outline>
    <contour>
      <point x="289" y="0" type="curve" smooth="yes"/>
      <point x="354" y="0"/>
      <point x="397" y="53"/>
      <point x="397" y="115" type="curve" smooth="yes"/>
      <point x="397" y="177"/>
      <point x="354" y="230"/>
      <point x="289" y="230" type="curve" smooth="yes"/>
      <point x="225" y="230"/>
      <point x="177" y="178"/>
      <point x="177" y="115" type="curve" smooth="yes"/>
      <point x="177" y="53"/>
      <point x="226" y="0"/>
    </contour>
    <contour>
      <point x="240" y="408" type="line"/>
      <point x="330" y="408" type="line"/>
      <point x="380" y="1577" type="line"/>
      <point x="190" y="1577" type="line"/>
    </contour>
  </outline>
</glyph>
<glyph name="quotedbl" format="1">
  <advance width="624"/>
  <unicode hex="0022"/>
  <outline>
    <contour>
      <point x="102" y="1058" type="line"/>
      <point x="210" y="1058" type="line"/>
      <point x="240" y="1508" type="line" smooth="yes"/>
      <point x="241" y="1529"/>
      <point x="240" y="1557"/>
      <point x="240" y="1579" type="curve"/>
      <point x="62" y="1579" type="line"/>
      <point x="62" y="1557"/>
      <point x="60" y="1529"/>
      <point x="62" y="1508" type="curve" smooth="yes"/>
    </contour>
    <contour>
      <point x="422" y="1058" type="line"/>
      <point x="530" y="1058" type="line"/>
      <point x="570" y="1508" type="line" smooth="yes"/>
      <point x="572" y="1529"/>
      <point x="570" y="1557"/>
      <point x="570" y="1579" type="curve"/>
      <point x="402" y="1579" type="line"/>
      <point x="402" y="1557"/>
      <point x="401" y="1529"/>
      <point x="402" y="1508" type="curve" smooth="yes"/>
    </contour>
  </outline>
</glyph>
<glyph name="percent" format="1">
  <advance width="1848"/>
  <unicode hex="0025"/>
  <outline>
    <contour>
      <point x="455" y="889" type="curve" smooth="yes"/>
      <point x="340" y="889"/>
      <point x="267" y="1002"/>
      <point x="267" y="1183" type="curve" smooth="yes"/>
      <point x="267" y="1373"/>
      <point x="340" y="1492"/>
      <point x="455" y="1492" type="curve" smooth="yes"/>
      <point x="570" y="1492"/>
      <point x="643" y="1373"/>
      <point x="643" y="1183" type="curve" smooth="yes"/>
      <point x="643" y="1002"/>
      <point x="570" y="889"/>
    </contour>
    <contour>
      <point x="455" y="779" type="curve" smooth="yes"/>
      <point x="652" y="779"/>
      <point x="776" y="935"/>
      <point x="776" y="1183" type="curve" smooth="yes"/>
      <point x="776" y="1437"/>
      <point x="652" y="1596"/>
      <point x="455" y="1596" type="curve" smooth="yes"/>
      <point x="258" y="1596"/>
      <point x="134" y="1437"/>
      <point x="134" y="1183" type="curve" smooth="yes"/>
      <point x="134" y="935"/>
      <point x="258" y="779"/>
    </contour>
    <contour>
      <point x="548" y="-42" type="line"/>
      <point x="1496" y="1580" type="line"/>
      <point x="1380" y="1633" type="line"/>
      <point x="430" y="7" type="line"/>
    </contour>
    <contour>
      <point x="1440" y="92" type="curve" smooth="yes"/>
      <point x="1325" y="92"/>
      <point x="1252" y="205"/>
      <point x="1252" y="386" type="curve" smooth="yes"/>
      <point x="1252" y="576"/>
      <point x="1325" y="695"/>
      <point x="1440" y="695" type="curve" smooth="yes"/>
      <point x="1555" y="695"/>
      <point x="1628" y="576"/>
      <point x="1628" y="386" type="curve" smooth="yes"/>
      <point x="1628" y="205"/>
      <point x="1555" y="92"/>
    </contour>
    <contour>
      <point x="1440" y="-18" type="curve" smooth="yes"/>
      <point x="1637" y="-18"/>
      <point x="1761" y="138"/>
      <point x="1761" y="386" type="curve" smooth="yes"/>
      <point x="1761" y="640"/>
      <point x="1637" y="799"/>
      <point x="1440" y="799" type="curve" smooth="yes"/>
      <point x="1243" y="799"/>
      <point x="1119" y="640"/>
      <point x="1119" y="386" type="curve" smooth="yes"/>
      <point x="1119" y="138"/>
      <point x="1243" y="-18"/>
    </contour>
  </outline>
</glyph>
<glyph name="ampersand" format="1">
  <advance width="1677"/>
  <unicode hex="0026"/>
  <outline>
    <contour>
      <point x="1603" y="17" type="line"/>
      <point x="1677" y="129" type="line"/>
      <point x="1409" y="340" type="line"/>
      <point x="1455" y="467"/>
      <point x="1481" y="703"/>
      <point x="1481" y="892" type="curve"/>
      <point x="1320" y="892" type="line"/>
      <point x="1320" y="734"/>
      <point x="1324" y="574"/>
      <point x="1284" y="434" type="curve"/>
      <point x="740" y="876" type="line"/>
      <point x="934" y="936"/>
      <point x="1135" y="1006"/>
      <point x="1135" y="1246" type="curve" smooth="yes"/>
      <point x="1135" y="1497"/>
      <point x="923" y="1596"/>
      <point x="694" y="1596" type="curve" smooth="yes"/>
      <point x="434" y="1596"/>
      <point x="255" y="1490"/>
      <point x="255" y="1240" type="curve" smooth="yes"/>
      <point x="255" y="1112"/>
      <point x="356" y="1002"/>
      <point x="486" y="919" type="curve"/>
      <point x="251" y="830"/>
      <point x="122" y="678"/>
      <point x="122" y="438" type="curve" smooth="yes"/>
      <point x="122" y="85"/>
      <point x="398" y="-18"/>
      <point x="734" y="-18" type="curve" smooth="yes"/>
      <point x="1016" y="-18"/>
      <point x="1247" y="44"/>
      <point x="1343" y="225" type="curve"/>
    </contour>
    <contour>
      <point x="734" y="125" type="curve" smooth="yes"/>
      <point x="477" y="125"/>
      <point x="310" y="192"/>
      <point x="310" y="455" type="curve" smooth="yes"/>
      <point x="310" y="638"/>
      <point x="414" y="770"/>
      <point x="595" y="830" type="curve"/>
      <point x="1228" y="306" type="line"/>
      <point x="1131" y="155"/>
      <point x="969" y="125"/>
    </contour>
    <contour>
      <point x="632" y="976" type="curve"/>
      <point x="514" y="1042"/>
      <point x="438" y="1139"/>
      <point x="438" y="1240" type="curve" smooth="yes"/>
      <point x="438" y="1407"/>
      <point x="551" y="1458"/>
      <point x="694" y="1458" type="curve" smooth="yes"/>
      <point x="829" y="1458"/>
      <point x="959" y="1401"/>
      <point x="959" y="1246" type="curve" smooth="yes"/>
      <point x="959" y="1065"/>
      <point x="777" y="1019"/>
    </contour>
  </outline>
</glyph>
<glyph name="quotesingle" format="1">
  <advance width="624"/>
  <unicode hex="0027"/>
  <outline>
    <contour>
      <point x="257" y="1058" type="line"/>
      <point x="365" y="1058" type="line"/>
      <point x="405" y="1508" type="line" smooth="yes"/>
      <point x="407" y="1529"/>
      <point x="405" y="1557"/>
      <point x="405" y="1579" type="curve"/>
      <point x="217" y="1579" type="line"/>
      <point x="217" y="1557"/>
      <point x="215" y="1529"/>
      <point x="217" y="1508" type="curve" smooth="yes"/>
    </contour>
  </outline>
</glyph>
<glyph name="parenright" format="1">
  <advance width="852"/>
  <unicode hex="0029"/>
  <outline>
    <contour>
      <point x="239" y="-183" type="line"/>
      <point x="507" y="24"/>
      <point x="640" y="394"/>
      <point x="640" y="760" type="curve" smooth="yes"/>
      <point x="640" y="1137"/>
      <point x="510" y="1509"/>
      <point x="251" y="1728" type="curve"/>
      <point x="140" y="1629" type="line"/>
      <point x="340" y="1427"/>
      <point x="439" y="1086"/>
      <point x="439" y="760" type="curve" smooth="yes"/>
      <point x="439" y="423"/>
      <point x="344" y="101"/>
      <point x="156" y="-78" type="curve"/>
    </contour>
  </outline>
</glyph>
<glyph name="plus" format="1">
  <advance width="1068"/>
  <unicode hex="002B"/>
  <outline>
    <contour>
      <point x="459" y="174" type="line"/>
      <point x="600" y="174" type="line"/>
      <point x="600" y="518" type="line"/>
      <point x="914" y="518" type="line"/>
      <point x="914" y="651" type="line"/>
      <point x="600" y="651" type="line"/>
      <point x="600" y="995" type="line"/>
      <point x="459" y="995" type="line"/>
      <point x="459" y="651" type="line"/>
      <point x="146" y="651" type="line"/>
      <point x="146" y="518" type="line"/>
      <point x="459" y="518" type="line"/>
    </contour>
  </outline>
</glyph>
<glyph name="slash" format="1">
  <advance width="934"/>
  <unicode hex="002F"/>
  <outline>
    <contour>
      <point x="128" y="-173" type="line"/>
      <point x="872" y="1685" type="line"/>
      <point x="755" y="1731" type="line"/>
      <point x="10" y="-127" type="line"/>
    </contour>
  </outline>
</glyph>
<glyph name="one" format="1">
  <advance width="828"/>
  <unicode hex="0031"/>
  <outline>
    <contour>
      <point x="440" y="0" type="line"/>
      <point x="627" y="0" type="line"/>
      <point x="627" y="1168" type="line"/>
      <point x="437" y="1168" type="line"/>
      <point x="158" y="1029" type="line"/>
      <point x="211" y="903" type="line"/>
      <point x="440" y="1013" type="line"/>
    </contour>
  </outline>
</glyph>
<glyph name="two" format="1">
  <advance width="1056"/>
  <unicode hex="0032"/>
  <outline>
    <contour>
      <point x="124" y="0" type="line"/>
      <point x="920" y="0" type="line"/>
      <point x="920" y="136" type="line"/>
      <point x="333" y="136" type="line"/>
      <point x="614" y="362" type="line" smooth="yes"/>
      <point x="778" y="494"/>
      <point x="920" y="652"/>
      <point x="920" y="832" type="curve" smooth="yes"/>
      <point x="920" y="1083"/>
      <point x="724" y="1186"/>
      <point x="510" y="1186" type="curve" smooth="yes"/>
      <point x="390" y="1186"/>
      <point x="264" y="1153"/>
      <point x="164" y="1095" type="curve"/>
      <point x="218" y="973" type="line"/>
      <point x="308" y="1017"/>
      <point x="418" y="1047"/>
      <point x="515" y="1047" type="curve" smooth="yes"/>
      <point x="649" y="1047"/>
      <point x="758" y="990"/>
      <point x="758" y="833" type="curve" smooth="yes"/>
      <point x="758" y="669"/>
      <point x="631" y="569"/>
      <point x="513" y="467" type="curve" smooth="yes"/>
      <point x="124" y="130" type="line"/>
    </contour>
  </outline>
</glyph>
<glyph name="eight" format="1">
  <advance width="1284"/>
  <unicode hex="0038"/>
  <outline>
    <contour>
      <point x="640" y="-148" type="curve" smooth="yes"/>
      <point x="927" y="-148"/>
      <point x="1107" y="8"/>
      <point x="1107" y="257" type="curve" smooth="yes"/>
      <point x="1107" y="430"/>
      <point x="1031" y="576"/>
      <point x="845" y="634" type="curve"/>
      <point x="1000" y="687"/>
      <point x="1087" y="795"/>
      <point x="1087" y="966" type="curve" smooth="yes"/>
      <point x="1087" y="1192"/>
      <point x="915" y="1334"/>
      <point x="640" y="1334" type="curve" smooth="yes"/>
      <point x="358" y="1334"/>
      <point x="181" y="1192"/>
      <point x="181" y="966" type="curve" smooth="yes"/>
      <point x="181" y="798"/>
      <point x="268" y="687"/>
      <point x="423" y="636" type="curve"/>
      <point x="237" y="578"/>
      <point x="161" y="432"/>
      <point x="161" y="257" type="curve" smooth="yes"/>
      <point x="161" y="8"/>
      <point x="346" y="-148"/>
    </contour>
    <contour>
      <point x="640" y="-9" type="curve" smooth="yes"/>
      <point x="455" y="-9"/>
      <point x="339" y="94"/>
      <point x="339" y="257" type="curve" smooth="yes"/>
      <point x="339" y="444"/>
      <point x="459" y="575"/>
      <point x="640" y="575" type="curve" smooth="yes"/>
      <point x="819" y="575"/>
      <point x="929" y="436"/>
      <point x="929" y="257" type="curve" smooth="yes"/>
      <point x="929" y="94"/>
      <point x="818" y="-9"/>
    </contour>
    <contour>
      <point x="640" y="691" type="curve" smooth="yes"/>
      <point x="486" y="691"/>
      <point x="359" y="805"/>
      <point x="359" y="966" type="curve" smooth="yes"/>
      <point x="359" y="1109"/>
      <point x="467" y="1199"/>
      <point x="640" y="1199" type="curve" smooth="yes"/>
      <point x="805" y="1199"/>
      <point x="909" y="1109"/>
      <point x="909" y="966" type="curve" smooth="yes"/>
      <point x="909" y="806"/>
      <point x="793" y="691"/>
    </contour>
  </outline>
</glyph>
<glyph name="colon" format="1">
  <advance width="720"/>
  <unicode hex="003A"/>
  <outline>
    <contour>
      <point x="221" y="0" type="line"/>
      <point x="491" y="0" type="line"/>
      <point x="491" y="281" type="line"/>
      <point x="221" y="281" type="line"/>
    </contour>
    <contour>
      <point x="221" y="583" type="line"/>
      <point x="491" y="583" type="line"/>
      <point x="491" y="864" type="line"/>
      <point x="221" y="864" type="line"/>
    </contour>
  </outline>
</glyph>
<glyph name="less" format="1">
  <advance width="1454"/>
  <unicode hex="003C"/>
  <outline>
    <contour>
      <point x="1165" y="150" type="line"/>
      <point x="1244" y="260" type="line"/>
      <point x="486" y="753" type="line"/>
      <point x="1244" y="1246" type="line"/>
      <point x="1165" y="1356" type="line"/>
      <point x="210" y="753" type="line"/>
    </contour>
  </outline>
</glyph>
<glyph name="greater" format="1">
  <advance width="1454"/>
  <unicode hex="003E"/>
  <outline>
    <contour>
      <point x="289" y="150" type="line"/>
      <point x="1244" y="753" type="line"/>
      <point x="289" y="1356" type="line"/>
      <point x="210" y="1246" type="line"/>
      <point x="968" y="753" type="line"/>
      <point x="210" y="260" type="line"/>
    </contour>
  </outline>
</glyph>
<glyph name="question" format="1">
  <advance width="1104"/>
  <unicode hex="003F"/>
  <outline>
    <contour>
      <point x="247" y="412" type="line"/>
      <point x="387" y="412" type="line"/>
      <point x="387" y="675" type="line"/>
      <point x="648" y="767"/>
      <point x="961" y="896"/>
      <point x="961" y="1216" type="curve" smooth="yes"/>
      <point x="961" y="1491"/>
      <point x="733" y="1591"/>
      <point x="491" y="1591" type="curve" smooth="yes"/>
      <point x="340" y="1591"/>
      <point x="182" y="1552"/>
      <point x="72" y="1492" type="curve"/>
      <point x="121" y="1359" type="line"/>
      <point x="228" y="1412"/>
      <point x="358" y="1447"/>
      <point x="473" y="1447" type="curve" smooth="yes"/>
      <point x="636" y="1447"/>
      <point x="770" y="1378"/>
      <point x="770" y="1197" type="curve" smooth="yes"/>
      <point x="770" y="947"/>
      <point x="437" y="841"/>
      <point x="247" y="777" type="curve"/>
    </contour>
    <contour>
      <point x="314" y="-18" type="curve" smooth="yes"/>
      <point x="390" y="-18"/>
      <point x="439" y="30"/>
      <point x="439" y="106" type="curve" smooth="yes"/>
      <point x="439" y="183"/>
      <point x="393" y="232"/>
      <point x="319" y="232" type="curve" smooth="yes"/>
      <point x="240" y="232"/>
      <point x="190" y="187"/>
      <point x="190" y="114" type="curve" smooth="yes"/>
      <point x="190" y="32"/>
      <point x="237" y="-18"/>
    </contour>
  </outline>
</glyph>
<glyph name="A" format="1">
  <advance width="1331"/>
  <unicode hex="0041"/>
  <outline>
    <contour>
      <point x="37" y="0" type="line"/>
      <point x="214" y="0" type="line"/>
      <point x="331" y="361" type="line"/>
      <point x="992" y="361" type="line"/>
      <point x="1108" y="0" type="line"/>
      <point x="1286" y="0" type="line"/>
      <point x="799" y="1485" type="line"/>
      <point x="523" y="1485" type="line"/>
    </contour>
    <contour>
      <point x="362" y="456" type="line"/>
      <point x="661" y="1375" type="line"/>
      <point x="961" y="456" type="line"/>
    </contour>
    <contour>
      <point x="660" y="1485" type="move" name="top"/>
    </contour>
    <contour>
      <point x="1182" y="0" type="move" name="ogonek"/>
    </contour>
  </outline>
</glyph>
<glyph name="C" format="1">
  <advance width="1330"/>
  <unicode hex="0043"/>
  <outline>
    <contour>
      <point x="831" y="-18" type="curve" smooth="yes"/>
      <point x="999" y="-18"/>
      <point x="1141" y="36"/>
      <point x="1264" y="110" type="curve"/>
      <point x="1201" y="241" type="line"/>
      <point x="1101" y="183"/>
      <point x="970" y="134"/>
      <point x="839" y="134" type="curve" smooth="yes"/>
      <point x="445" y="134"/>
      <point x="341" y="452"/>
      <point x="341" y="784" type="curve" smooth="yes"/>
      <point x="341" y="1119"/>
      <point x="456" y="1444"/>
      <point x="847" y="1444" type="curve" smooth="yes"/>
      <point x="977" y="1444"/>
      <point x="1101" y="1394"/>
      <point x="1175" y="1352" type="curve"/>
      <point x="1235" y="1482" type="line"/>
      <point x="1150" y="1535"/>
      <point x="1019" y="1596"/>
      <point x="847" y="1596" type="curve" smooth="yes"/>
      <point x="351" y="1596"/>
      <point x="147" y="1252"/>
      <point x="147" y="788" type="curve" smooth="yes"/>
      <point x="147" y="348"/>
      <point x="327" y="-18"/>
    </contour>
    <contour>
      <point x="845" y="1578" type="move" name="top"/>
    </contour>
    <contour>
      <point x="830" y="0" type="move" name="bot"/>
    </contour>
  </outline>
</glyph>
<glyph name="E" format="1">
  <advance width="1192"/>
  <unicode hex="0045"/>
  <outline>
    <contour>
      <point x="181" y="0" type="line"/>
      <point x="1069" y="0" type="line"/>
      <point x="1069" y="133" type="line"/>
      <point x="361" y="133" type="line"/>
      <point x="361" y="704" type="line"/>
      <point x="976" y="704" type="line"/>
      <point x="976" y="822" type="line"/>
      <point x="361" y="822" type="line"/>
      <point x="361" y="1353" type="line"/>
      <point x="1081" y="1353" type="line"/>
      <point x="1081" y="1485" type="line"/>
      <point x="181" y="1485" type="line"/>
    </contour>
    <contour>
      <point x="690" y="1485" type="move" name="top"/>
    </contour>
    <contour>
      <point x="800" y="0" type="move" name="ogonek"/>
    </contour>
    <contour>
      <point x="702" y="0" type="move" name="bot"/>
    </contour>
  </outline>
</glyph>
<glyph name="F" format="1">
  <advance width="1234"/>
  <unicode hex="0046"/>
  <outline>
    <contour>
      <point x="194" y="0" type="line"/>
      <point x="390" y="0" type="line"/>
      <point x="390" y="762" type="line"/>
      <point x="1045" y="762" type="line"/>
      <point x="1045" y="879" type="line"/>
      <point x="390" y="879" type="line"/>
      <point x="390" y="1436" type="line"/>
      <point x="1106" y="1436" type="line"/>
      <point x="1106" y="1579" type="line"/>
      <point x="194" y="1579" type="line"/>
    </contour>
    <contour>
      <point x="700" y="1578" type="move" name="top"/>
    </contour>
    <contour>
      <point x="685" y="0" type="move" name="bot"/>
    </contour>
  </outline>
</glyph>
<glyph name="G" format="1">
  <advance width="1472"/>
  <unicode hex="0047"/>
  <outline>
    <contour>
      <point x="731" y="-20" type="curve" smooth="yes"/>
      <point x="903" y="-20"/>
      <point x="1121" y="30"/>
      <point x="1169" y="195" type="curve"/>
      <point x="1218" y="0" type="line"/>
      <point x="1299" y="0" type="line"/>
      <point x="1299" y="762" type="line"/>
      <point x="750" y="762" type="line"/>
      <point x="750" y="645" type="line"/>
      <point x="1129" y="645" type="line"/>
      <point x="1129" y="371" type="line" smooth="yes"/>
      <point x="1129" y="190"/>
      <point x="952" y="120"/>
      <point x="774" y="120" type="curve" smooth="yes"/>
      <point x="390" y="120"/>
      <point x="317" y="422"/>
      <point x="317" y="736" type="curve" smooth="yes"/>
      <point x="317" y="1044"/>
      <point x="406" y="1364"/>
      <point x="788" y="1364" type="curve" smooth="yes"/>
      <point x="903" y="1364"/>
      <point x="1047" y="1329"/>
      <point x="1134" y="1269" type="curve"/>
      <point x="1196" y="1391" type="line"/>
      <point x="1071" y="1458"/>
      <point x="946" y="1505"/>
      <point x="790" y="1505" type="curve" smooth="yes"/>
      <point x="321" y="1505"/>
      <point x="137" y="1167"/>
      <point x="137" y="740" type="curve" smooth="yes"/>
      <point x="137" y="364"/>
      <point x="296" y="-20"/>
    </contour>
    <contour>
      <point x="767" y="-3" type="move" name="bot"/>
    </contour>
  </outline>
</glyph>
<glyph name="I" format="1">
  <advance width="1020"/>
  <unicode hex="0049"/>
  <outline>
    <contour>
      <point x="209" y="0" type="line"/>
      <point x="802" y="0" type="line"/>
      <point x="802" y="112" type="line"/>
      <point x="596" y="112" type="line"/>
      <point x="596" y="1461" type="line"/>
      <point x="802" y="1461" type="line"/>
      <point x="802" y="1579" type="line"/>
      <point x="209" y="1579" type="line"/>
      <point x="209" y="1461" type="line"/>
      <point x="413" y="1461" type="line"/>
      <point x="413" y="112" type="line"/>
      <point x="209" y="112" type="line"/>
    </contour>
    <contour>
      <point x="522" y="1578" type="move" name="top"/>
    </contour>
    <contour>
      <point x="507" y="0" type="move" name="bot"/>
    </contour>
  </outline>
</glyph>
<glyph name="J" format="1">
  <advance width="816"/>
  <unicode hex="004A"/>
  <outline>
    <contour>
      <point x="96" y="-113" type="line"/>
      <point x="544" y="-73"/>
      <point x="593" y="138"/>
      <point x="593" y="484" type="curve" smooth="yes"/>
      <point x="593" y="1579" type="line"/>
      <point x="399" y="1579" type="line"/>
      <point x="399" y="479" type="line" smooth="yes"/>
      <point x="399" y="203"/>
      <point x="393" y="90"/>
      <point x="85" y="44" type="curve"/>
    </contour>
    <contour>
      <point x="492" y="1578" type="move" name="top"/>
    </contour>
    <contour>
      <point x="477" y="0" type="move" name="bot"/>
    </contour>
  </outline>
</glyph>
<glyph name="K" format="1">
  <advance width="1368"/>
  <unicode hex="004B"/>
  <outline>
    <contour>
      <point x="194" y="0" type="line"/>
      <point x="388" y="0" type="line"/>
      <point x="388" y="747" type="line"/>
      <point x="431" y="747" type="line"/>
      <point x="1109" y="0" type="line"/>
      <point x="1342" y="0" type="line"/>
      <point x="600" y="815" type="line"/>
      <point x="1294" y="1579" type="line"/>
      <point x="1083" y="1579" type="line"/>
      <point x="421" y="876" type="line"/>
      <point x="388" y="876" type="line"/>
      <point x="388" y="1579" type="line"/>
      <point x="194" y="1579" type="line"/>
    </contour>
    <contour>
      <point x="724" y="1578" type="move" name="top"/>
    </contour>
    <contour>
      <point x="709" y="0" type="move" name="bot"/>
    </contour>
  </outline>
</glyph>
<glyph name="M" format="1">
  <advance width="1799"/>
  <unicode hex="004D"/>
  <outline>
    <contour>
      <point x="181" y="0" type="line"/>
      <point x="342" y="0" type="line"/>
      <point x="342" y="1264" type="line"/>
      <point x="838" y="106" type="line"/>
      <point x="954" y="106" type="line"/>
      <point x="1458" y="1264" type="line"/>
      <point x="1458" y="0" type="line"/>
      <point x="1618" y="0" type="line"/>
      <point x="1618" y="1485" type="line"/>
      <point x="1395" y="1485" type="line"/>
      <point x="900" y="308" type="line"/>
      <point x="404" y="1485" type="line"/>
      <point x="181" y="1485" type="line"/>
    </contour>
    <contour>
      <point x="905" y="1485" type="move" name="top"/>
    </contour>
  </outline>
</glyph>
<glyph name="N" format="1">
  <advance width="1641"/>
  <unicode hex="004E"/>
  <outline>
    <contour>
      <point x="194" y="0" type="line"/>
      <point x="366" y="0" type="line"/>
      <point x="366" y="1404" type="line"/>
      <point x="1185" y="0" type="line"/>
      <point x="1447" y="0" type="line"/>
      <point x="1447" y="1579" type="line"/>
      <point x="1275" y="1579" type="line"/>
      <point x="1275" y="175" type="line"/>
      <point x="456" y="1579" type="line"/>
      <point x="194" y="1579" type="line"/>
    </contour>
    <contour>
      <point x="837" y="1578" type="move" name="top"/>
    </contour>
    <contour>
      <point x="822" y="0" type="move" name="bot"/>
    </contour>
  </outline>
</glyph>
<glyph name="S" format="1">
  <advance width="1258"/>
  <unicode hex="0053"/>
  <outline>
    <contour>
      <point x="626" y="-18" type="curve" smooth="yes"/>
      <point x="943" y="-18"/>
      <point x="1167" y="105"/>
      <point x="1167" y="414" type="curve" smooth="yes"/>
      <point x="1167" y="718"/>
      <point x="1003" y="793"/>
      <point x="758" y="883" type="curve" smooth="yes"/>
      <point x="552" y="959" type="line" smooth="yes"/>
      <point x="388" y="1019"/>
      <point x="294" y="1062"/>
      <point x="294" y="1219" type="curve" smooth="yes"/>
      <point x="294" y="1381"/>
      <point x="448" y="1444"/>
      <point x="623" y="1444" type="curve" smooth="yes"/>
      <point x="766" y="1444"/>
      <point x="922" y="1403"/>
      <point x="1019" y="1339" type="curve"/>
      <point x="1081" y="1473" type="line"/>
      <point x="943" y="1562"/>
      <point x="779" y="1596"/>
      <point x="610" y="1596" type="curve" smooth="yes"/>
      <point x="332" y="1596"/>
      <point x="113" y="1466"/>
      <point x="113" y="1192" type="curve" smooth="yes"/>
      <point x="113" y="941"/>
      <point x="275" y="871"/>
      <point x="474" y="801" type="curve" smooth="yes"/>
      <point x="718" y="715" type="line" smooth="yes"/>
      <point x="930" y="640"/>
      <point x="989" y="588"/>
      <point x="989" y="416" type="curve" smooth="yes"/>
      <point x="989" y="195"/>
      <point x="842" y="134"/>
      <point x="633" y="134" type="curve" smooth="yes"/>
      <point x="432" y="134"/>
      <point x="241" y="230"/>
      <point x="185" y="268" type="curve"/>
      <point x="120" y="122" type="line"/>
      <point x="241" y="47"/>
      <point x="484" y="-18"/>
    </contour>
    <contour>
      <point x="638" y="1578" type="move" name="top"/>
    </contour>
    <contour>
      <point x="623" y="0" type="move" name="bot"/>
    </contour>
  </outline>
</glyph>
<glyph name="T" format="1">
  <advance width="1049"/>
  <unicode hex="0054"/>
  <outline>
    <contour>
      <point x="445" y="0" type="line"/>
      <point x="619" y="0" type="line"/>
      <point x="619" y="1354" type="line"/>
      <point x="1051" y="1354" type="line"/>
      <point x="1051" y="1485" type="line"/>
      <point x="11" y="1485" type="line"/>
      <point x="11" y="1354" type="line"/>
      <point x="445" y="1354" type="line"/>
    </contour>
    <contour>
      <point x="546" y="1485" type="move" name="top"/>
    </contour>
    <contour>
      <point x="533" y="0" type="move" name="bot"/>
    </contour>
    <contour>
      <point x="545" y="848" type="move" name="mid"/>
    </contour>
  </outline>
</glyph>
<glyph name="V" format="1">
  <advance width="1360"/>
  <unicode hex="0056"/>
  <outline>
    <contour>
      <point x="554" y="0" type="line"/>
      <point x="768" y="0" type="line"/>
      <point x="1322" y="1579" type="line"/>
      <point x="1133" y="1579" type="line"/>
      <point x="672" y="219" type="line"/>
      <point x="229" y="1579" type="line"/>
      <point x="38" y="1579" type="line"/>
    </contour>
  </outline>
</glyph>
<glyph name="Y" format="1">
  <advance width="1167"/>
  <unicode hex="0059"/>
  <outline>
    <contour>
      <point x="494" y="0" type="line"/>
      <point x="669" y="0" type="line"/>
      <point x="669" y="594" type="line"/>
      <point x="1152" y="1485" type="line"/>
      <point x="977" y="1485" type="line"/>
      <point x="582" y="770" type="line"/>
      <point x="192" y="1485" type="line"/>
      <point x="15" y="1485" type="line"/>
      <point x="494" y="594" type="line"/>
    </contour>
    <contour>
      <point x="602" y="1485" type="move" name="top"/>
    </contour>
  </outline>
</glyph>
<glyph name="Z" format="1">
  <advance width="1104"/>
  <unicode hex="005A"/>
  <outline>
    <contour>
      <point x="111" y="0" type="line"/>
      <point x="1031" y="0" type="line"/>
      <point x="1031" y="132" type="line"/>
      <point x="301" y="132" type="line"/>
      <point x="1039" y="1366" type="line"/>
      <point x="1039" y="1485" type="line"/>
      <point x="137" y="1485" type="line"/>
      <point x="137" y="1364" type="line"/>
      <point x="848" y="1364" type="line"/>
      <point x="111" y="130" type="line"/>
    </contour>
    <contour>
      <point x="612" y="1485" type="move" name="top"/>
    </contour>
  </outline>
</glyph>
<glyph name="bracketleft" format="1">
  <advance width="947"/>
  <unicode hex="005B"/>
  <outline>
    <contour>
      <point x="182" y="-200" type="line"/>
      <point x="847" y="-200" type="line"/>
      <point x="847" y="-57" type="line"/>
      <point x="376" y="-57" type="line"/>
      <point x="376" y="1578" type="line"/>
      <point x="847" y="1578" type="line"/>
      <point x="847" y="1721" type="line"/>
      <point x="182" y="1721" type="line"/>
    </contour>
  </outline>
</glyph>
<glyph name="backslash" format="1">
  <advance width="972"/>
  <unicode hex="005C"/>
  <outline>
    <contour>
      <point x="693" y="-172" type="line"/>
      <point x="853" y="-114" type="line"/>
      <point x="230" y="1731" type="line"/>
      <point x="72" y="1679" type="line"/>
    </contour>
  </outline>
</glyph>
<glyph name="bracketright" format="1">
  <advance width="947"/>
  <unicode hex="005D"/>
  <outline>
    <contour>
      <point x="100" y="-200" type="line"/>
      <point x="765" y="-200" type="line"/>
      <point x="765" y="1721" type="line"/>
      <point x="100" y="1721" type="line"/>
      <point x="100" y="1578" type="line"/>
      <point x="571" y="1578" type="line"/>
      <point x="571" y="-57" type="line"/>
      <point x="100" y="-57" type="line"/>
    </contour>
  </outline>
</glyph>
<glyph name="asciicircum" format="1">
  <advance width="1124"/>
  <unicode hex="005E"/>
  <outline>
    <contour>
      <point x="62" y="601" type="line"/>
      <point x="230" y="601" type="line"/>
      <point x="562" y="1348" type="line"/>
      <point x="894" y="601" type="line"/>
      <point x="1062" y="601" type="line"/>
      <point x="640" y="1578" type="line"/>
      <point x="484" y="1578" type="line"/>
    </contour>
  </outline>
</glyph>
<glyph name="b" format="1">
  <advance width="1318"/>
  <unicode hex="0062"/>
  <outline>
    <contour>
      <point x="700" y="-18" type="curve" smooth="yes"/>
      <point x="1045" y="-18"/>
      <point x="1198" y="277"/>
      <point x="1198" y="580" type="curve" smooth="yes"/>
      <point x="1198" y="926"/>
      <point x="1041" y="1186"/>
      <point x="726" y="1186" type="curve" smooth="yes"/>
      <point x="573" y="1186"/>
      <point x="450" y="1127"/>
      <point x="364" y="1041" type="curve"/>
      <point x="364" y="1614" type="line"/>
      <point x="174" y="1579" type="line"/>
      <point x="174" y="0" type="line"/>
      <point x="314" y="0" type="line"/>
      <point x="341" y="145" type="line"/>
      <point x="415" y="60"/>
      <point x="528" y="-18"/>
    </contour>
    <contour>
      <point x="707" y="119" type="curve" smooth="yes"/>
      <point x="540" y="119"/>
      <point x="440" y="176"/>
      <point x="364" y="266" type="curve"/>
      <point x="364" y="913" type="line"/>
      <point x="452" y="991"/>
      <point x="566" y="1043"/>
      <point x="694" y="1043" type="curve" smooth="yes"/>
      <point x="905" y="1043"/>
      <point x="1016" y="884"/>
      <point x="1016" y="584" type="curve" smooth="yes"/>
      <point x="1016" y="370"/>
      <point x="954" y="119"/>
    </contour>
    <contour>
      <point x="714" y="1168" type="move" name="top"/>
    </contour>
    <contour>
      <point x="712" y="0" type="move" name="bot"/>
    </contour>
  </outline>
</glyph>
<glyph name="c" format="1">
  <advance width="1101"/>
  <unicode hex="0063"/>
  <outline>
    <contour>
      <point x="672" y="-18" type="curve" smooth="yes"/>
      <point x="799" y="-18"/>
      <point x="913" y="24"/>
      <point x="1016" y="111" type="curve"/>
      <point x="956" y="231" type="line"/>
      <point x="879" y="168"/>
      <point x="785" y="119"/>
      <point x="677" y="119" type="curve" smooth="yes"/>
      <point x="415" y="119"/>
      <point x="308" y="353"/>
      <point x="308" y="580" type="curve" smooth="yes"/>
      <point x="308" y="810"/>
      <point x="402" y="1045"/>
      <point x="657" y="1045" type="curve" smooth="yes"/>
      <point x="767" y="1045"/>
      <point x="876" y="1009"/>
      <point x="959" y="933" type="curve"/>
      <point x="1016" y="1057" type="line"/>
      <point x="908" y="1145"/>
      <point x="786" y="1186"/>
      <point x="652" y="1186" type="curve" smooth="yes"/>
      <point x="308" y="1186"/>
      <point x="120" y="911"/>
      <point x="120" y="584" type="curve" smooth="yes"/>
      <point x="120" y="255"/>
      <point x="317" y="-18"/>
    </contour>
    <contour>
      <point x="613" y="1168" type="move" name="top"/>
    </contour>
    <contour>
      <point x="654" y="0" type="move" name="bot"/>
    </contour>
  </outline>
</glyph>
<glyph name="e" format="1">
  <advance width="1213"/>
  <unicode hex="0065"/>
  <outline>
    <contour>
      <point x="650" y="-18" type="curve" smooth="yes"/>
      <point x="788" y="-18"/>
      <point x="963" y="27"/>
      <point x="1057" y="108" type="curve"/>
      <point x="1001" y="232" type="line"/>
      <point x="960" y="198"/>
      <point x="837" y="119"/>
      <point x="683" y="119" type="curve" smooth="yes"/>
      <point x="476" y="119"/>
      <point x="309" y="234"/>
      <point x="306" y="563" type="curve"/>
      <point x="1084" y="563" type="line"/>
      <point x="1090" y="600"/>
      <point x="1095" y="638"/>
      <point x="1095" y="676" type="curve" smooth="yes"/>
      <point x="1095" y="965"/>
      <point x="949" y="1186"/>
      <point x="641" y="1186" type="curve" smooth="yes"/>
      <point x="289" y="1186"/>
      <point x="120" y="897"/>
      <point x="120" y="578" type="curve" smooth="yes"/>
      <point x="120" y="246"/>
      <point x="297" y="-18"/>
    </contour>
    <contour>
      <point x="311" y="687" type="line"/>
      <point x="328" y="887"/>
      <point x="414" y="1046"/>
      <point x="642" y="1046" type="curve" smooth="yes"/>
      <point x="847" y="1046"/>
      <point x="927" y="896"/>
      <point x="927" y="715" type="curve" smooth="yes"/>
      <point x="927" y="687" type="line"/>
    </contour>
    <contour>
      <point x="640" y="1168" type="move" name="top"/>
    </contour>
    <contour>
      <point x="734" y="0" type="move" name="ogonek"/>
    </contour>
    <contour>
      <point x="653" y="0" type="move" name="bot"/>
    </contour>
  </outline>
</glyph>
<glyph name="h" format="1">
  <advance width="1303"/>
  <unicode hex="0068"/>
  <outline>
    <contour>
      <point x="174" y="0" type="line"/>
      <point x="360" y="0" type="line"/>
      <point x="360" y="870" type="line"/>
      <point x="442" y="954"/>
      <point x="556" y="1042"/>
      <point x="725" y="1042" type="curve" smooth="yes"/>
      <point x="916" y="1042"/>
      <point x="953" y="880"/>
      <point x="953" y="727" type="curve" smooth="yes"/>
      <point x="953" y="0" type="line"/>
      <point x="1139" y="0" type="line"/>
      <point x="1139" y="727" type="line" smooth="yes"/>
      <point x="1139" y="982"/>
      <point x="1042" y="1186"/>
      <point x="742" y="1186" type="curve" smooth="yes"/>
      <point x="575" y="1186"/>
      <point x="450" y="1107"/>
      <point x="360" y="1021" type="curve"/>
      <point x="360" y="1616" type="line"/>
      <point x="174" y="1579" type="line"/>
    </contour>
    <contour>
      <point x="744" y="1168" type="move" name="top"/>
    </contour>
    <contour>
      <point x="742" y="0" type="move" name="bot"/>
    </contour>
  </outline>
</glyph>
<glyph name="i" format="1">
  <advance width="572"/>
  <unicode hex="0069"/>
  <outline>
    <contour>
      <point x="199" y="0" type="line"/>
      <point x="385" y="0" type="line"/>
      <point x="385" y="1168" type="line"/>
      <point x="199" y="1168" type="line"/>
    </contour>
    <contour>
      <point x="298" y="1347" type="curve" smooth="yes"/>
      <point x="363" y="1347"/>
      <point x="406" y="1400"/>
      <point x="406" y="1462" type="curve" smooth="yes"/>
      <point x="406" y="1524"/>
      <point x="363" y="1577"/>
      <point x="298" y="1577" type="curve" smooth="yes"/>
      <point x="235" y="1577"/>
      <point x="186" y="1524"/>
      <point x="186" y="1462" type="curve" smooth="yes"/>
      <point x="186" y="1399"/>
      <point x="234" y="1347"/>
    </contour>
  </outline>
</glyph>
<glyph name="j" format="1">
  <advance width="602"/>
  <unicode hex="006A"/>
  <outline>
    <contour>
      <point x="54" y="-463" type="line"/>
      <point x="292" y="-405"/>
      <point x="423" y="-298"/>
      <point x="423" y="44" type="curve" smooth="yes"/>
      <point x="423" y="1168" type="line"/>
      <point x="237" y="1168" type="line"/>
      <point x="237" y="66" type="line" smooth="yes"/>
      <point x="237" y="-194"/>
      <point x="218" y="-239"/>
      <point x="4" y="-324" type="curve"/>
    </contour>
    <contour>
      <point x="332" y="1347" type="curve" smooth="yes"/>
      <point x="397" y="1347"/>
      <point x="440" y="1400"/>
      <point x="440" y="1462" type="curve" smooth="yes"/>
      <point x="440" y="1524"/>
      <point x="397" y="1577"/>
      <point x="332" y="1577" type="curve" smooth="yes"/>
      <point x="269" y="1577"/>
      <point x="220" y="1524"/>
      <point x="220" y="1462" type="curve" smooth="yes"/>
      <point x="220" y="1399"/>
      <point x="268" y="1347"/>
    </contour>
  </outline>
</glyph>
<glyph name="l" format="1">
  <advance width="522"/>
  <unicode hex="006C"/>
  <outline>
    <contour>
      <point x="179" y="0" type="line"/>
      <point x="350" y="0" type="line"/>
      <point x="350" y="1521" type="line"/>
      <point x="179" y="1486" type="line"/>
    </contour>
    <contour>
      <point x="271" y="1485" type="move" name="top"/>
    </contour>
    <contour>
      <point x="313" y="1098" type="move" name="caron.alt"/>
    </contour>
    <contour>
      <point x="184" y="816" type="move" name="mid"/>
    </contour>
  </outline>
</glyph>
<glyph name="m" format="1">
  <advance width="2022"/>
  <unicode hex="006D"/>
  <outline>
    <contour>
      <point x="174" y="0" type="line"/>
      <point x="360" y="0" type="line"/>
      <point x="360" y="864" type="line"/>
      <point x="482" y="984"/>
      <point x="614" y="1042"/>
      <point x="723" y="1042" type="curve" smooth="yes"/>
      <point x="895" y="1042"/>
      <point x="923" y="908"/>
      <point x="923" y="764" type="curve" smooth="yes"/>
      <point x="923" y="0" type="line"/>
      <point x="1113" y="0" type="line"/>
      <point x="1113" y="769" type="line" smooth="yes"/>
      <point x="1113" y="785"/>
      <point x="1112" y="820"/>
      <point x="1106" y="862" type="curve"/>
      <point x="1233" y="992"/>
      <point x="1355" y="1042"/>
      <point x="1473" y="1042" type="curve" smooth="yes"/>
      <point x="1644" y="1042"/>
      <point x="1668" y="908"/>
      <point x="1668" y="764" type="curve" smooth="yes"/>
      <point x="1668" y="0" type="line"/>
      <point x="1858" y="0" type="line"/>
      <point x="1858" y="762" type="line" smooth="yes"/>
      <point x="1858" y="988"/>
      <point x="1750" y="1186"/>
      <point x="1501" y="1186" type="curve" smooth="yes"/>
      <point x="1366" y="1186"/>
      <point x="1208" y="1137"/>
      <point x="1075" y="981" type="curve"/>
      <point x="1032" y="1085"/>
      <point x="942" y="1186"/>
      <point x="754" y="1186" type="curve" smooth="yes"/>
      <point x="618" y="1186"/>
      <point x="484" y="1138"/>
      <point x="341" y="993" type="curve"/>
      <point x="314" y="1168" type="line"/>
      <point x="174" y="1168" type="line"/>
    </contour>
    <contour>
      <point x="1044" y="1168" type="move" name="top"/>
    </contour>
    <contour>
      <point x="1042" y="0" type="move" name="bot"/>
    </contour>
  </outline>
</glyph>
<glyph name="n" format="1">
  <advance width="1303"/>
  <unicode hex="006E"/>
  <outline>
    <contour>
      <point x="174" y="0" type="line"/>
      <point x="360" y="0" type="line"/>
      <point x="360" y="871" type="line"/>
      <point x="443" y="955"/>
      <point x="560" y="1042"/>
      <point x="730" y="1042" type="curve" smooth="yes"/>
      <point x="921" y="1042"/>
      <point x="953" y="880"/>
      <point x="953" y="723" type="curve" smooth="yes"/>
      <point x="953" y="0" type="line"/>
      <point x="1139" y="0" type="line"/>
      <point x="1139" y="723" type="line" smooth="yes"/>
      <point x="1139" y="982"/>
      <point x="1042" y="1186"/>
      <point x="742" y="1186" type="curve" smooth="yes"/>
      <point x="562" y="1186"/>
      <point x="432" y="1096"/>
      <point x="340" y="1003" type="curve"/>
      <point x="314" y="1168" type="line"/>
      <point x="174" y="1168" type="line"/>
    </contour>
    <contour>
      <point x="694" y="1168" type="move" name="top"/>
    </contour>
    <contour>
      <point x="692" y="0" type="move" name="bot"/>
    </contour>
  </outline>
</glyph>
<glyph name="q" format="1">
  <advance width="1285"/>
  <unicode hex="0071"/>
  <outline>
    <contour>
      <point x="1125" y="-453" type="line"/>
      <point x="1125" y="1168" type="line"/>
      <point x="985" y="1168" type="line"/>
      <point x="955" y="1038" type="line"/>
      <point x="871" y="1124"/>
      <point x="750" y="1186"/>
      <point x="592" y="1186" type="curve" smooth="yes"/>
      <point x="277" y="1186"/>
      <point x="120" y="924"/>
      <point x="120" y="580" type="curve" smooth="yes"/>
      <point x="120" y="279"/>
      <point x="273" y="-18"/>
      <point x="618" y="-18" type="curve" smooth="yes"/>
      <point x="760" y="-18"/>
      <point x="862" y="36"/>
      <point x="935" y="103" type="curve"/>
      <point x="935" y="-478" type="line"/>
    </contour>
    <contour>
      <point x="625" y="118" type="curve" smooth="yes"/>
      <point x="386" y="118"/>
      <point x="302" y="320"/>
      <point x="302" y="584" type="curve" smooth="yes"/>
      <point x="302" y="879"/>
      <point x="411" y="1041"/>
      <point x="624" y="1042" type="curve" smooth="yes"/>
      <point x="742" y="1042"/>
      <point x="850" y="996"/>
      <point x="935" y="926" type="curve"/>
      <point x="935" y="247" type="line"/>
      <point x="861" y="169"/>
      <point x="765" y="118"/>
    </contour>
    <contour>
      <point x="605" y="1168" type="move" name="top"/>
    </contour>
    <contour>
      <point x="607" y="0" type="move" name="bot"/>
    </contour>
  </outline>
</glyph>
<glyph name="u" format="1">
  <advance width="1321"/>
  <unicode hex="0075"/>
  <outline>
    <contour>
      <point x="572" y="-18" type="curve" smooth="yes"/>
      <point x="778" y="-18"/>
      <point x="899" y="79"/>
      <point x="979" y="165" type="curve"/>
      <point x="1006" y="0" type="line"/>
      <point x="1147" y="0" type="line"/>
      <point x="1147" y="1168" type="line"/>
      <point x="957" y="1168" type="line"/>
      <point x="957" y="298" type="line"/>
      <point x="862" y="205"/>
      <point x="776" y="126"/>
      <point x="583" y="126" type="curve" smooth="yes"/>
      <point x="399" y="126"/>
      <point x="354" y="265"/>
      <point x="354" y="429" type="curve" smooth="yes"/>
      <point x="354" y="1168" type="line"/>
      <point x="164" y="1168" type="line"/>
      <point x="164" y="429" type="line" smooth="yes"/>
      <point x="164" y="141"/>
      <point x="290" y="-18"/>
    </contour>
    <contour>
      <point x="664" y="1168" type="move" name="top"/>
    </contour>
    <contour>
      <point x="1074" y="0" type="move" name="ogonek"/>
    </contour>
  </outline>
</glyph>
<glyph name="braceright" format="1">
  <advance width="855"/>
  <unicode hex="007D"/>
  <outline>
    <contour>
      <point x="114" y="-170" type="line"/>
      <point x="438" y="-170"/>
      <point x="543" y="-94"/>
      <point x="543" y="302" type="curve" smooth="yes"/>
      <point x="543" y="614"/>
      <point x="596" y="650"/>
      <point x="761" y="650" type="curve"/>
      <point x="761" y="818" type="line"/>
      <point x="593" y="818"/>
      <point x="543" y="853"/>
      <point x="543" y="1166" type="curve" smooth="yes"/>
      <point x="543" y="1562"/>
      <point x="438" y="1638"/>
      <point x="114" y="1638" type="curve"/>
      <point x="114" y="1509" type="line"/>
      <point x="283" y="1509"/>
      <point x="349" y="1449"/>
      <point x="352" y="1195" type="curve" smooth="yes"/>
      <point x="356" y="861"/>
      <point x="393" y="758"/>
      <point x="614" y="734" type="curve"/>
      <point x="393" y="709"/>
      <point x="356" y="607"/>
      <point x="352" y="273" type="curve" smooth="yes"/>
      <point x="349" y="21"/>
      <point x="287" y="-41"/>
      <point x="114" y="-41" type="curve"/>
    </contour>
  </outline>
</glyph>
<glyph name="asciitilde" format="1">
  <advance width="1044"/>
  <unicode hex="007E"/>
  <outline>
    <contour>
      <point x="139" y="634" type="curve"/>
      <point x="215" y="634" type="line"/>
      <point x="215" y="722"/>
      <point x="245" y="752"/>
      <point x="295" y="752" type="curve" smooth="yes"/>
      <point x="398" y="752"/>
      <point x="585" y="630"/>
      <point x="777" y="630" type="curve" smooth="yes"/>
      <point x="914" y="630"/>
      <point x="939" y="731"/>
      <point x="939" y="880" type="curve"/>
      <point x="863" y="880" type="line"/>
      <point x="863" y="796"/>
      <point x="836" y="768"/>
      <point x="790" y="768" type="curve" smooth="yes"/>
      <point x="693" y="768"/>
      <point x="511" y="894"/>
      <point x="320" y="894" type="curve" smooth="yes"/>
      <point x="163" y="894"/>
      <point x="139" y="781"/>
    </contour>
  </outline>
</glyph>
<glyph name="cent" format="1">
  <advance width="1075"/>
  <unicode hex="00A2"/>
  <outline>
    <contour>
      <point x="586" y="-205" type="line"/>
      <point x="684" y="-205" type="line"/>
      <point x="684" y="1440" type="line"/>
      <point x="586" y="1440" type="line"/>
    </contour>
    <component base="c" yOffset="79" yScale="0.93"/>
  </outline>
</glyph>
<glyph name="sterling" format="1">
  <advance width="1152"/>
  <unicode hex="00A3"/>
  <outline>
    <contour>
      <point x="168" y="0" type="line"/>
      <point x="965" y="0" type="line"/>
      <point x="965" y="132" type="line"/>
      <point x="349" y="132" type="line"/>
      <point x="446" y="216"/>
      <point x="511" y="339"/>
      <point x="511" y="461" type="curve" smooth="yes"/>
      <point x="511" y="509"/>
      <point x="501" y="558"/>
      <point x="478" y="603" type="curve"/>
      <point x="896" y="603" type="line"/>
      <point x="896" y="700" type="line"/>
      <point x="441" y="700" type="line"/>
      <point x="384" y="784"/>
      <point x="351" y="886"/>
      <point x="351" y="961" type="curve" smooth="yes"/>
      <point x="351" y="1119"/>
      <point x="462" y="1185"/>
      <point x="610" y="1185" type="curve" smooth="yes"/>
      <point x="714" y="1185"/>
      <point x="835" y="1153"/>
      <point x="950" y="1097" type="curve"/>
      <point x="1000" y="1219" type="line"/>
      <point x="868" y="1289"/>
      <point x="723" y="1325"/>
      <point x="593" y="1325" type="curve" smooth="yes"/>
      <point x="368" y="1325"/>
      <point x="186" y="1215"/>
      <point x="186" y="974" type="curve" smooth="yes"/>
      <point x="186" y="885"/>
      <point x="221" y="784"/>
      <point x="288" y="700" type="curve"/>
      <point x="113" y="700" type="line"/>
      <point x="113" y="603" type="line"/>
      <point x="336" y="603" type="line"/>
      <point x="356" y="562"/>
      <point x="366" y="519"/>
      <point x="366" y="475" type="curve" smooth="yes"/>
      <point x="366" y="349"/>
      <point x="286" y="218"/>
      <point x="168" y="126" type="curve"/>
    </contour>
  </outline>
</glyph>
<glyph name="currency" format="1">
  <advance width="1212"/>
  <unicode hex="00A4"/>
  <outline>
    <contour>
      <point x="180" y="430" type="line"/>
      <point x="369" y="619" type="line"/>
      <point x="434" y="578"/>
      <point x="509" y="558"/>
      <point x="585" y="558" type="curve" smooth="yes"/>
      <point x="671" y="558"/>
      <point x="754" y="584"/>
      <point x="825" y="633" type="curve"/>
      <point x="1028" y="430" type="line"/>
      <point x="1152" y="555" type="line"/>
      <point x="950" y="757" type="line"/>
      <point x="999" y="829"/>
      <point x="1026" y="913"/>
      <point x="1026" y="1000" type="curve" smooth="yes"/>
      <point x="1026" y="1076"/>
      <point x="1006" y="1150"/>
      <point x="965" y="1215" type="curve"/>
      <point x="1152" y="1402" type="line"/>
      <point x="1028" y="1526" type="line"/>
      <point x="842" y="1341" type="line"/>
      <point x="775" y="1385"/>
      <point x="697" y="1409"/>
      <point x="617" y="1409" type="curve" smooth="yes"/>
      <point x="530" y="1409"/>
      <point x="446" y="1382"/>
      <point x="374" y="1333" type="curve"/>
      <point x="180" y="1526" type="line"/>
      <point x="56" y="1402" type="line"/>
      <point x="250" y="1208" type="line"/>
      <point x="202" y="1137"/>
      <point x="175" y="1053"/>
      <point x="175" y="967" type="curve" smooth="yes"/>
      <point x="175" y="887"/>
      <point x="199" y="809"/>
      <point x="243" y="742" type="curve"/>
      <point x="56" y="555" type="line"/>
    </contour>
    <contour>
      <point x="592" y="699" type="curve" smooth="yes"/>
      <point x="446" y="699"/>
      <point x="318" y="829"/>
      <point x="318" y="975" type="curve" smooth="yes"/>
      <point x="318" y="1130"/>
      <point x="456" y="1266"/>
      <point x="610" y="1266" type="curve" smooth="yes"/>
      <point x="756" y="1266"/>
      <point x="884" y="1138"/>
      <point x="884" y="992" type="curve" smooth="yes"/>
      <point x="884" y="840"/>
      <point x="744" y="699"/>
    </contour>
  </outline>
</glyph>
<glyph name="dieresis" format="1">
  <advance width="1020"/>
  <unicode hex="00A8"/>
  <outline>
    <contour>
      <point x="265" y="1321" type="curve" smooth="yes"/>
      <point x="330" y="1321"/>
      <point x="373" y="1374"/>
      <point x="373" y="1436" type="curve" smooth="yes"/>
      <point x="373" y="1498"/>
      <point x="330" y="1551"/>
      <point x="265" y="1551" type="curve" smooth="yes"/>
      <point x="202" y="1551"/>
      <point x="153" y="1498"/>
      <point x="153" y="1436" type="curve" smooth="yes"/>
      <point x="153" y="1373"/>
      <point x="201" y="1321"/>
    </contour>
    <contour>
      <point x="755" y="1321" type="curve" smooth="yes"/>
      <point x="820" y="1321"/>
      <point x="863" y="1374"/>
      <point x="863" y="1436" type="curve" smooth="yes"/>
      <point x="863" y="1498"/>
      <point x="820" y="1551"/>
      <point x="755" y="1551" type="curve" smooth="yes"/>
      <point x="692" y="1551"/>
      <point x="643" y="1498"/>
      <point x="643" y="1436" type="curve" smooth="yes"/>
      <point x="643" y="1373"/>
      <point x="691" y="1321"/>
    </contour>
    <contour>
      <point x="522" y="1168" type="move" name="_top"/>
    </contour>
  </outline>
</glyph>
<glyph name="guillemotleft" format="1">
  <advance width="1310"/>
  <unicode hex="00AB"/>
  <outline>
    <contour>
      <point x="704" y="117" type="line"/>
      <point x="704" y="306" type="line"/>
      <point x="318" y="577" type="line"/>
      <point x="704" y="842" type="line"/>
      <point x="704" y="1029" type="line"/>
      <point x="156" y="646" type="line"/>
      <point x="156" y="499" type="line"/>
    </contour>
    <contour>
      <point x="1194" y="117" type="line"/>
      <point x="1194" y="306" type="line"/>
      <point x="808" y="577" type="line"/>
      <point x="1194" y="842" type="line"/>
      <point x="1194" y="1029" type="line"/>
      <point x="646" y="646" type="line"/>
      <point x="646" y="499" type="line"/>
    </contour>
  </outline>
</glyph>
<glyph name="uni00AD" format="1">
  <advance width="852"/>
  <unicode hex="00AD"/>
  <outline>
    <contour>
      <point x="187" y="508" type="line"/>
      <point x="655" y="508" type="line"/>
      <point x="655" y="639" type="line"/>
      <point x="187" y="639" type="line"/>
    </contour>
  </outline>
</glyph>
<glyph name="plusminus" format="1">
  <advance width="1044"/>
  <unicode hex="00B1"/>
  <outline>
    <contour>
      <point x="452" y="174" type="line"/>
      <point x="593" y="174" type="line"/>
      <point x="593" y="518" type="line"/>
      <point x="907" y="518" type="line"/>
      <point x="907" y="651" type="line"/>
      <point x="593" y="651" type="line"/>
      <point x="593" y="995" type="line"/>
      <point x="452" y="995" type="line"/>
      <point x="452" y="651" type="line"/>
      <point x="139" y="651" type="line"/>
      <point x="139" y="518" type="line"/>
      <point x="452" y="518" type="line"/>
    </contour>
    <contour>
      <point x="173" y="-55" type="line"/>
      <point x="874" y="-55" type="line"/>
      <point x="874" y="88" type="line"/>
      <point x="173" y="88" type="line"/>
    </contour>
  </outline>
</glyph>
<glyph name="uni00B2" format="1">
  <advance width="1056"/>
  <unicode hex="00B2"/>
  <outline>
    <contour>
      <point x="139" y="581" type="line"/>
      <point x="903" y="581" type="line"/>
      <point x="903" y="712" type="line"/>
      <point x="340" y="712" type="line"/>
      <point x="609" y="941" type="line" smooth="yes"/>
      <point x="764" y="1072"/>
      <point x="903" y="1220"/>
      <point x="903" y="1392" type="curve" smooth="yes"/>
      <point x="903" y="1633"/>
      <point x="715" y="1732"/>
      <point x="510" y="1732" type="curve" smooth="yes"/>
      <point x="394" y="1732"/>
      <point x="273" y="1700"/>
      <point x="177" y="1645" type="curve"/>
      <point x="229" y="1528" type="line"/>
      <point x="316" y="1570"/>
      <point x="421" y="1599"/>
      <point x="514" y="1599" type="curve" smooth="yes"/>
      <point x="643" y="1599"/>
      <point x="748" y="1544"/>
      <point x="748" y="1393" type="curve" smooth="yes"/>
      <point x="748" y="1236"/>
      <point x="624" y="1142"/>
      <point x="512" y="1042" type="curve" smooth="yes"/>
      <point x="139" y="706" type="line"/>
    </contour>
  </outline>
</glyph>
<glyph name="uni00B3" format="1">
  <advance width="1176"/>
  <unicode hex="00B3"/>
  <outline>
    <contour>
      <point x="556" y="480" type="curve" smooth="yes"/>
      <point x="753" y="480"/>
      <point x="973" y="578"/>
      <point x="973" y="804" type="curve" smooth="yes"/>
      <point x="973" y="992"/>
      <point x="857" y="1105"/>
      <point x="681" y="1141" type="curve"/>
      <point x="834" y="1142"/>
      <point x="938" y="1283"/>
      <point x="938" y="1427" type="curve" smooth="yes"/>
      <point x="938" y="1654"/>
      <point x="733" y="1729"/>
      <point x="539" y="1729" type="curve" smooth="yes"/>
      <point x="438" y="1729"/>
      <point x="319" y="1699"/>
      <point x="225" y="1657" type="curve"/>
      <point x="270" y="1539" type="line"/>
      <point x="352" y="1579"/>
      <point x="441" y="1602"/>
      <point x="534" y="1602" type="curve" smooth="yes"/>
      <point x="672" y="1602"/>
      <point x="791" y="1566"/>
      <point x="791" y="1406" type="curve" smooth="yes"/>
      <point x="791" y="1247"/>
      <point x="647" y="1202"/>
      <point x="514" y="1202" type="curve"/>
      <point x="514" y="1075" type="line"/>
      <point x="667" y="1058"/>
      <point x="813" y="998"/>
      <point x="813" y="822" type="curve" smooth="yes"/>
      <point x="813" y="664"/>
      <point x="706" y="603"/>
      <point x="560" y="603" type="curve" smooth="yes"/>
      <point x="458" y="603"/>
      <point x="334" y="636"/>
      <point x="244" y="684" type="curve"/>
      <point x="196" y="565" type="line"/>
      <point x="307" y="511"/>
      <point x="432" y="480"/>
    </contour>
  </outline>
</glyph>
<glyph name="acute" format="1">
  <advance width="804"/>
  <unicode hex="00B4"/>
  <outline>
    <contour>
      <point x="177" y="1373" type="line"/>
      <point x="683" y="1696" type="line"/>
      <point x="552" y="1833" type="line"/>
      <point x="138" y="1421" type="line"/>
    </contour>
    <contour>
      <point x="173" y="1168" type="move" name="_top"/>
    </contour>
  </outline>
</glyph>
<glyph name="cedilla" format="1">
  <advance width="732"/>
  <unicode hex="00B8"/>
  <outline>
    <contour>
      <point x="237" y="-448" type="curve" smooth="yes"/>
      <point x="378" y="-448"/>
      <point x="450" y="-358"/>
      <point x="450" y="-265" type="curve" smooth="yes"/>
      <point x="450" y="-177"/>
      <point x="384" y="-86"/>
      <point x="246" y="-72" type="curve"/>
      <point x="260" y="0" type="line"/>
      <point x="146" y="0" type="line"/>
      <point x="135" y="-118" type="line"/>
      <point x="265" y="-129"/>
      <point x="303" y="-180"/>
      <point x="303" y="-240" type="curve" smooth="yes"/>
      <point x="303" y="-313"/>
      <point x="260" y="-342"/>
      <point x="201" y="-342" type="curve" smooth="yes"/>
      <point x="158" y="-342"/>
      <point x="106" y="-326"/>
      <point x="56" y="-299" type="curve"/>
      <point x="26" y="-380" type="line"/>
      <point x="89" y="-425"/>
      <point x="166" y="-448"/>
    </contour>
    <contour>
      <point x="208" y="0" type="move" name="_bot"/>
    </contour>
  </outline>
</glyph>
<glyph name="guillemotright" format="1">
  <advance width="1310"/>
  <unicode hex="00BB"/>
  <outline>
    <contour>
      <point x="196" y="117" type="line"/>
      <point x="744" y="499" type="line"/>
      <point x="744" y="646" type="line"/>
      <point x="196" y="1029" type="line"/>
      <point x="196" y="842" type="line"/>
      <point x="582" y="577" type="line"/>
      <point x="196" y="306" type="line"/>
    </contour>
    <contour>
      <point x="686" y="117" type="line"/>
      <point x="1234" y="499" type="line"/>
      <point x="1234" y="646" type="line"/>
      <point x="686" y="1029" type="line"/>
      <point x="686" y="842" type="line"/>
      <point x="1072" y="577" type="line"/>
      <point x="686" y="306" type="line"/>
    </contour>
  </outline>
</glyph>
<glyph name="Thorn" format="1">
  <advance width="1440"/>
  <unicode hex="00DE"/>
  <outline>
    <contour>
      <point x="189" y="0" type="line"/>
      <point x="383" y="0" type="line"/>
      <point x="383" y="372" type="line"/>
      <point x="430" y="372" type="line" smooth="yes"/>
      <point x="787" y="371"/>
      <point x="1286" y="366"/>
      <point x="1286" y="841" type="curve" smooth="yes"/>
      <point x="1286" y="1269"/>
      <point x="940" y="1312"/>
      <point x="586" y="1312" type="curve" smooth="yes"/>
      <point x="383" y="1312" type="line"/>
      <point x="383" y="1578" type="line"/>
      <point x="189" y="1578" type="line"/>
    </contour>
    <contour>
      <point x="383" y="517" type="line"/>
      <point x="383" y="1169" type="line"/>
      <point x="598" y="1169" type="line" smooth="yes"/>
      <point x="897" y="1169"/>
      <point x="1104" y="1155"/>
      <point x="1104" y="817" type="curve" smooth="yes"/>
      <point x="1104" y="523"/>
      <point x="774" y="517"/>
      <point x="553" y="517" type="curve" smooth="yes"/>
    </contour>
    <contour>
      <point x="712" y="1578" type="move" name="top"/>
    </contour>
    <contour>
      <point x="697" y="0" type="move" name="bot"/>
    </contour>
  </outline>
</glyph>
<glyph name="germandbls" format="1">
  <advance width="1392"/>
  <unicode hex="00DF"/>
  <outline>
    <contour>
      <point x="531" y="-129" type="line"/>
      <point x="881" y="-129"/>
      <point x="1305" y="-37"/>
      <point x="1305" y="395" type="curve" smooth="yes"/>
      <point x="1305" y="661"/>
      <point x="1150" y="844"/>
      <point x="877" y="844" type="curve"/>
      <point x="1052" y="864"/>
      <point x="1123" y="1015"/>
      <point x="1123" y="1176" type="curve" smooth="yes"/>
      <point x="1123" y="1484"/>
      <point x="906" y="1579"/>
      <point x="630" y="1579" type="curve" smooth="yes"/>
      <point x="271" y="1579"/>
      <point x="160" y="1381"/>
      <point x="160" y="1046" type="curve" smooth="yes"/>
      <point x="161" y="-6" type="line"/>
      <point x="355" y="16" type="line"/>
      <point x="355" y="1018" type="line" smooth="yes"/>
      <point x="355" y="1240"/>
      <point x="356" y="1436"/>
      <point x="630" y="1436" type="curve" smooth="yes"/>
      <point x="798" y="1436"/>
      <point x="951" y="1399"/>
      <point x="951" y="1200" type="curve" smooth="yes"/>
      <point x="951" y="932.027"/>
      <point x="764" y="897.578"/>
      <point x="543" y="903.348" type="curve" smooth="yes"/>
      <point x="529" y="903.736"/>
      <point x="514" y="904.307"/>
      <point x="499" y="905" type="curve"/>
      <point x="499" y="774" type="line"/>
      <point x="740" y="774"/>
      <point x="1123" y="759"/>
      <point x="1123" y="432" type="curve" smooth="yes"/>
      <point x="1123" y="62"/>
      <point x="847" y="27"/>
      <point x="531" y="27" type="curve"/>
    </contour>
  </outline>
</glyph>
<glyph name="eth" format="1">
  <advance width="1260"/>
  <unicode hex="00F0"/>
  <outline>
    <contour>
      <point x="595" y="-20" type="curve" smooth="yes"/>
      <point x="1021" y="-20"/>
      <point x="1128" y="324"/>
      <point x="1128" y="690" type="curve" smooth="yes"/>
      <point x="1128" y="973"/>
      <point x="1048" y="1200"/>
      <point x="882" y="1426" type="curve"/>
      <point x="1142" y="1503" type="line"/>
      <point x="1100" y="1593" type="line"/>
      <point x="814" y="1508" type="line"/>
      <point x="721" y="1599"/>
      <point x="633" y="1679"/>
      <point x="518" y="1743" type="curve"/>
      <point x="434" y="1641" type="line"/>
      <point x="515" y="1590"/>
      <point x="588" y="1528"/>
      <point x="655" y="1461" type="curve"/>
      <point x="452" y="1401" type="line"/>
      <point x="494" y="1311" type="line"/>
      <point x="729" y="1380" type="line"/>
      <point x="818" y="1277"/>
      <point x="895" y="1158"/>
      <point x="938" y="1028" type="curve"/>
      <point x="857" y="1129"/>
      <point x="699" y="1190"/>
      <point x="573" y="1190" type="curve" smooth="yes"/>
      <point x="241" y="1190"/>
      <point x="111" y="870"/>
      <point x="111" y="584" type="curve" smooth="yes"/>
      <point x="111" y="275"/>
      <point x="245" y="-20"/>
    </contour>
    <contour>
      <point x="591" y="123" type="curve" smooth="yes"/>
      <point x="335" y="123"/>
      <point x="293" y="384"/>
      <point x="293" y="587" type="curve" smooth="yes"/>
      <point x="293" y="822"/>
      <point x="342" y="1047"/>
      <point x="617" y="1047" type="curve" smooth="yes"/>
      <point x="836" y="1047"/>
      <point x="944" y="869"/>
      <point x="944" y="666" type="curve" smooth="yes"/>
      <point x="944" y="412"/>
      <point x="906" y="123"/>
    </contour>
  </outline>
</glyph>
<glyph name="divide" format="1">
  <advance width="1008"/>
  <unicode hex="00F7"/>
  <outline>
    <contour>
      <point x="497" y="235" type="curve" smooth="yes"/>
      <point x="562" y="235"/>
      <point x="605" y="288"/>
      <point x="605" y="350" type="curve" smooth="yes"/>
      <point x="605" y="412"/>
      <point x="562" y="465"/>
      <point x="497" y="465" type="curve" smooth="yes"/>
      <point x="434" y="465"/>
      <point x="385" y="412"/>
      <point x="385" y="350" type="curve" smooth="yes"/>
      <point x="385" y="287"/>
      <point x="433" y="235"/>
    </contour>
    <contour>
      <point x="100" y="608" type="line"/>
      <point x="902" y="608" type="line"/>
      <point x="902" y="739" type="line"/>
      <point x="100" y="739" type="line"/>
    </contour>
    <contour>
      <point x="499" y="880" type="curve" smooth="yes"/>
      <point x="564" y="880"/>
      <point x="607" y="933"/>
      <point x="607" y="995" type="curve" smooth="yes"/>
      <point x="607" y="1057"/>
      <point x="564" y="1110"/>
      <point x="499" y="1110" type="curve" smooth="yes"/>
      <point x="436" y="1110"/>
      <point x="387" y="1057"/>
      <point x="387" y="995" type="curve" smooth="yes"/>
      <point x="387" y="932"/>
      <point x="435" y="880"/>
    </contour>
  </outline>
</glyph>
<glyph name="oslash" format="1">
  <advance width="1284"/>
  <unicode hex="00F8"/>
  <outline>
    <contour>
      <point x="425" y="-198" type="line"/>
      <point x="491" y="-2" type="line"/>
      <point x="540" y="-15"/>
      <point x="591" y="-20"/>
      <point x="641" y="-20" type="curve" smooth="yes"/>
      <point x="1002" y="-20"/>
      <point x="1172" y="247"/>
      <point x="1172" y="582" type="curve" smooth="yes"/>
      <point x="1172" y="809"/>
      <point x="1093" y="1032"/>
      <point x="880" y="1140" type="curve"/>
      <point x="947" y="1335" type="line"/>
      <point x="866" y="1365" type="line"/>
      <point x="799" y="1170" type="line"/>
      <point x="748" y="1184"/>
      <point x="694" y="1190"/>
      <point x="641" y="1190" type="curve" smooth="yes"/>
      <point x="281" y="1190"/>
      <point x="111" y="914"/>
      <point x="111" y="582" type="curve" smooth="yes"/>
      <point x="111" y="357"/>
      <point x="188" y="131"/>
      <point x="404" y="28" type="curve"/>
      <point x="337" y="-168" type="line"/>
    </contour>
    <contour>
      <point x="453" y="169" type="line"/>
      <point x="322" y="259"/>
      <point x="293" y="434"/>
      <point x="293" y="582" type="curve" smooth="yes"/>
      <point x="293" y="812"/>
      <point x="370" y="1051"/>
      <point x="641" y="1051" type="curve" smooth="yes"/>
      <point x="678" y="1051"/>
      <point x="716" y="1047"/>
      <point x="752" y="1035" type="curve"/>
    </contour>
    <contour>
      <point x="641" y="117" type="curve" smooth="yes"/>
      <point x="606" y="117"/>
      <point x="570" y="120"/>
      <point x="536" y="130" type="curve"/>
      <point x="831" y="996" type="line"/>
      <point x="960" y="905"/>
      <point x="989" y="729"/>
      <point x="989" y="582" type="curve" smooth="yes"/>
      <point x="989" y="351"/>
      <point x="913" y="117"/>
    </contour>
    <contour>
      <point x="647" y="1168" type="move" name="top"/>
    </contour>
  </outline>
</glyph>
<glyph name="hbar" format="1">
  <advance width="1308"/>
  <unicode hex="0127"/>
  <outline>
    <contour>
      <point x="166" y="0" type="line"/>
      <point x="356" y="0" type="line"/>
      <point x="356" y="888" type="line"/>
      <point x="442" y="979"/>
      <point x="607" y="1047"/>
      <point x="731" y="1047" type="curve" smooth="yes"/>
      <point x="925" y="1047"/>
      <point x="963" y="892"/>
      <point x="963" y="727" type="curve" smooth="yes"/>
      <point x="963" y="0" type="line"/>
      <point x="1153" y="0" type="line"/>
      <point x="1153" y="727" type="line" smooth="yes"/>
      <point x="1153" y="1018"/>
      <point x="1038" y="1190"/>
      <point x="745" y="1190" type="curve" smooth="yes"/>
      <point x="582" y="1190"/>
      <point x="462" y="1108"/>
      <point x="356" y="1011" type="curve"/>
      <point x="356" y="1357" type="line"/>
      <point x="725" y="1357" type="line"/>
      <point x="725" y="1474" type="line"/>
      <point x="356" y="1474" type="line"/>
      <point x="356" y="1616" type="line"/>
      <point x="166" y="1579" type="line"/>
      <point x="166" y="1474" type="line"/>
      <point x="43" y="1474" type="line"/>
      <point x="43" y="1357" type="line"/>
      <point x="166" y="1357" type="line"/>
    </contour>
  </outline>
</glyph>
<glyph name="dotlessi" format="1">
  <advance width="660"/>
  <unicode hex="0131"/>
  <outline>
    <contour>
      <point x="235" y="0" type="line"/>
      <point x="417" y="0" type="line"/>
      <point x="417" y="1169" type="line"/>
      <point x="235" y="1169" type="line"/>
    </contour>
    <contour>
      <point x="340" y="1168" type="move" name="top"/>
    </contour>
    <contour>
      <point x="347" y="0" type="move" name="ogonek"/>
    </contour>
  </outline>
</glyph>
<glyph name="Eng" format="1">
  <advance width="1656"/>
  <unicode hex="014A"/>
  <outline>
    <contour>
      <point x="1093" y="-463" type="line"/>
      <point x="1331" y="-405"/>
      <point x="1462" y="-298"/>
      <point x="1462" y="44" type="curve" smooth="yes"/>
      <point x="1462" y="269" type="line"/>
      <point x="1290" y="269" type="line"/>
      <point x="1290" y="66" type="line" smooth="yes"/>
      <point x="1290" y="-194"/>
      <point x="1271" y="-239"/>
      <point x="1043" y="-324" type="curve"/>
    </contour>
    <component base="N"/>
  </outline>
</glyph>
<glyph name="eng" format="1">
  <advance width="1196"/>
  <unicode hex="014B"/>
  <outline>
    <contour>
      <point x="528" y="1116"/>
      <point x="405" y="1031"/>
      <point x="318" y="942" type="curve"/>
      <point x="293" y="1096" type="line"/>
      <point x="164" y="1096" type="line"/>
      <point x="164" y="0" type="line"/>
      <point x="336" y="0" type="line"/>
      <point x="336" y="820" type="line"/>
      <point x="416" y="901"/>
      <point x="527" y="982"/>
      <point x="686" y="982" type="curve" smooth="yes"/>
      <point x="868" y="982"/>
      <point x="899" y="829"/>
      <point x="899" y="680" type="curve" smooth="yes"/>
      <point x="899" y="163" type="line" smooth="yes"/>
      <point x="899" y="-83"/>
      <point x="833" y="-147"/>
      <point x="599" y="-205" type="curve"/>
      <point x="645" y="-333" type="line"/>
      <point x="902" y="-298"/>
      <point x="1071" y="-179"/>
      <point x="1071" y="142" type="curve" smooth="yes"/>
      <point x="1071" y="680" type="line" smooth="yes"/>
      <point x="1071" y="923"/>
      <point x="980" y="1116"/>
      <point x="697" y="1116" type="curve" smooth="yes"/>
    </contour>
    <contour>
      <point x="653" y="1098" type="move" name="top"/>
    </contour>
    <contour>
      <point x="650" y="0" type="move" name="bot"/>
    </contour>
  </outline>
</glyph>
<glyph name="ring" format="1">
  <advance width="852"/>
  <unicode hex="02DA"/>
  <outline>
    <contour>
      <point x="458" y="1394" type="curve" smooth="yes"/>
      <point x="368" y="1394"/>
      <point x="312" y="1451"/>
      <point x="312" y="1543" type="curve" smooth="yes"/>
      <point x="312" y="1635"/>
      <point x="368" y="1692"/>
      <point x="458" y="1692" type="curve" smooth="yes"/>
      <point x="544" y="1692"/>
      <point x="598" y="1635"/>
      <point x="598" y="1543" type="curve" smooth="yes"/>
      <point x="598" y="1451"/>
      <point x="544" y="1394"/>
    </contour>
    <contour>
      <point x="458" y="1304" type="curve" smooth="yes"/>
      <point x="604" y="1304"/>
      <point x="695" y="1396"/>
      <point x="695" y="1543" type="curve" smooth="yes"/>
      <point x="695" y="1690"/>
      <point x="604" y="1783"/>
      <point x="458" y="1783" type="curve" smooth="yes"/>
      <point x="309" y="1783"/>
      <point x="215" y="1690"/>
      <point x="215" y="1543" type="curve" smooth="yes"/>
      <point x="215" y="1396"/>
      <point x="309" y="1304"/>
    </contour>
    <contour>
      <point x="424" y="1674" type="move" name="top"/>
    </contour>
    <contour>
      <point x="458" y="1168" type="move" name="_top"/>
    </contour>
  </outline>
</glyph>
<glyph name="tilde" format="1">
  <advance width="973"/>
  <unicode hex="02DC"/>
  <outline>
    <contour>
      <point x="178" y="1247" type="curve"/>
      <point x="247" y="1247" type="line"/>
      <point x="247" y="1306.31"/>
      <point x="276.296" y="1326.1"/>
      <point x="320.806" y="1326.16" type="curve" smooth="yes"/>
      <point x="408.386" y="1326.27"/>
      <point x="554.872" y="1249.99"/>
      <point x="653" y="1248" type="curve" smooth="yes"/>
      <point x="760" y="1247"/>
      <point x="812" y="1310"/>
      <point x="812" y="1461" type="curve"/>
      <point x="744" y="1461" type="line"/>
      <point x="744" y="1406.99"/>
      <point x="714.543" y="1389.33"/>
      <point x="670.343" y="1389.89" type="curve" smooth="yes"/>
      <point x="581.969" y="1391.02"/>
      <point x="434.657" y="1465"/>
      <point x="346" y="1467" type="curve" smooth="yes"/>
      <point x="235" y="1468"/>
      <point x="178" y="1409"/>
    </contour>
    <contour>
      <point x="501" y="1098" type="move" name="_top"/>
    </contour>
  </outline>
</glyph>
<glyph name="uni03BC" format="1">
  <advance width="1308"/>
  <unicode hex="03BC"/>
  <outline>
    <contour>
      <point x="340" y="-291" type="line"/>
      <point x="340" y="113" type="line"/>
      <point x="400" y="35"/>
      <point x="478" y="-20"/>
      <point x="580" y="-20" type="curve" smooth="yes"/>
      <point x="739" y="-20"/>
      <point x="873" y="54"/>
      <point x="977" y="170" type="curve"/>
      <point x="1001" y="16" type="line"/>
      <point x="1147" y="16" type="line"/>
      <point x="1147" y="1169" type="line"/>
      <point x="939" y="1169" type="line"/>
      <point x="939" y="274" type="line"/>
      <point x="864" y="183"/>
      <point x="707" y="123"/>
      <point x="592" y="123" type="curve" smooth="yes"/>
      <point x="397" y="123"/>
      <point x="340" y="270"/>
      <point x="340" y="442" type="curve" smooth="yes"/>
      <point x="340" y="1169" type="line"/>
      <point x="166" y="1169" type="line"/>
      <point x="166" y="-291" type="line"/>
    </contour>
  </outline>
</glyph>
<glyph name="emdash" format="1">
  <advance width="1176"/>
  <unicode hex="2014"/>
  <outline>
    <contour>
      <point x="118" y="555" type="line"/>
      <point x="1058" y="555" type="line"/>
      <point x="1058" y="699" type="line"/>
      <point x="118" y="699" type="line"/>
    </contour>
  </outline>
</glyph>
<glyph name="quoteleft" format="1">
  <advance width="720"/>
  <unicode hex="2018"/>
  <outline>
    <contour>
      <point x="215" y="1033" type="line"/>
      <point x="496" y="1033" type="line"/>
      <point x="496" y="1326" type="line"/>
      <point x="365" y="1326" type="line"/>
      <point x="364" y="1421"/>
      <point x="410" y="1456"/>
      <point x="495" y="1485" type="curve"/>
      <point x="444" y="1579" type="line"/>
      <point x="298" y="1537"/>
      <point x="215" y="1436"/>
      <point x="215" y="1282" type="curve" smooth="yes"/>
    </contour>
  </outline>
</glyph>
<glyph name="quoteright" format="1">
  <advance width="672"/>
  <unicode hex="2019"/>
  <outline>
    <contour>
      <point x="253" y="1033" type="line"/>
      <point x="399" y="1075"/>
      <point x="482" y="1176"/>
      <point x="482" y="1330" type="curve" smooth="yes"/>
      <point x="482" y="1579" type="line"/>
      <point x="201" y="1579" type="line"/>
      <point x="201" y="1286" type="line"/>
      <point x="332" y="1286" type="line"/>
      <point x="333" y="1191"/>
      <point x="287" y="1156"/>
      <point x="202" y="1127" type="curve"/>
    </contour>
  </outline>
</glyph>
<glyph name="quotedblright" format="1">
  <advance width="936"/>
  <unicode hex="201D"/>
  <outline>
    <contour>
      <point x="212" y="1033" type="line"/>
      <point x="358" y="1075"/>
      <point x="441" y="1176"/>
      <point x="441" y="1330" type="curve" smooth="yes"/>
      <point x="441" y="1579" type="line"/>
      <point x="160" y="1579" type="line"/>
      <point x="160" y="1286" type="line"/>
      <point x="291" y="1286" type="line"/>
      <point x="292" y="1191"/>
      <point x="246" y="1156"/>
      <point x="161" y="1127" type="curve"/>
    </contour>
    <contour>
      <point x="581" y="1033" type="line"/>
      <point x="727" y="1075"/>
      <point x="810" y="1176"/>
      <point x="810" y="1330" type="curve" smooth="yes"/>
      <point x="810" y="1579" type="line"/>
      <point x="529" y="1579" type="line"/>
      <point x="529" y="1286" type="line"/>
      <point x="660" y="1286" type="line"/>
      <point x="661" y="1191"/>
      <point x="615" y="1156"/>
      <point x="530" y="1127" type="curve"/>
    </contour>
  </outline>
</glyph>
<glyph name="quotedblbase" format="1">
  <advance width="984"/>
  <unicode hex="201E"/>
  <outline>
    <contour>
      <point x="212" y="-272" type="line"/>
      <point x="358" y="-230"/>
      <point x="441" y="-129"/>
      <point x="441" y="25" type="curve" smooth="yes"/>
      <point x="441" y="274" type="line"/>
      <point x="160" y="274" type="line"/>
      <point x="160" y="-19" type="line"/>
      <point x="291" y="-19" type="line"/>
      <point x="292" y="-114"/>
      <point x="246" y="-149"/>
      <point x="161" y="-178" type="curve"/>
    </contour>
    <contour>
      <point x="581" y="-272" type="line"/>
      <point x="727" y="-230"/>
      <point x="810" y="-129"/>
      <point x="810" y="25" type="curve" smooth="yes"/>
      <point x="810" y="274" type="line"/>
      <point x="529" y="274" type="line"/>
      <point x="529" y="-19" type="line"/>
      <point x="660" y="-19" type="line"/>
      <point x="661" y="-114"/>
      <point x="615" y="-149"/>
      <point x="530" y="-178" type="curve"/>
    </contour>
  </outline>
</glyph>
<glyph name="daggerdbl" format="1">
  <advance width="1142"/>
  <unicode hex="2021"/>
  <outline>
    <contour>
      <point x="482" y="-200" type="line"/>
      <point x="661" y="-200" type="line"/>
      <point x="661" y="305" type="line"/>
      <point x="986" y="305" type="line"/>
      <point x="986" y="444" type="line"/>
      <point x="661" y="444" type="line"/>
      <point x="661" y="1020" type="line"/>
      <point x="988" y="1020" type="line"/>
      <point x="988" y="1161" type="line"/>
      <point x="661" y="1161" type="line"/>
      <point x="661" y="1578" type="line"/>
      <point x="482" y="1578" type="line"/>
      <point x="482" y="1161" type="line"/>
      <point x="154" y="1161" type="line"/>
      <point x="154" y="1020" type="line"/>
      <point x="482" y="1020" type="line"/>
      <point x="482" y="444" type="line"/>
      <point x="154" y="444" type="line"/>
      <point x="154" y="305" type="line"/>
      <point x="482" y="305" type="line"/>
    </contour>
  </outline>
</glyph>
<glyph name="bullet" format="1">
  <advance width="972"/>
  <unicode hex="2022"/>
  <outline>
    <contour>
      <point x="480" y="358" type="curve" smooth="yes"/>
      <point x="670" y="358"/>
      <point x="830" y="497"/>
      <point x="830" y="692" type="curve" smooth="yes"/>
      <point x="830" y="884"/>
      <point x="667" y="1028"/>
      <point x="480" y="1028" type="curve" smooth="yes"/>
      <point x="291" y="1028"/>
      <point x="132" y="885"/>
      <point x="132" y="692" type="curve" smooth="yes"/>
      <point x="132" y="500"/>
      <point x="292" y="358"/>
    </contour>
  </outline>
</glyph>
<glyph name="perthousand" format="1">
  <advance width="2614"/>
  <unicode hex="2030"/>
  <outline>
    <contour>
      <point x="2206" y="92" type="curve" smooth="yes"/>
      <point x="2091" y="92"/>
      <point x="2018" y="205"/>
      <point x="2018" y="386" type="curve" smooth="yes"/>
      <point x="2018" y="576"/>
      <point x="2091" y="695"/>
      <point x="2206" y="695" type="curve" smooth="yes"/>
      <point x="2321" y="695"/>
      <point x="2394" y="576"/>
      <point x="2394" y="386" type="curve" smooth="yes"/>
      <point x="2394" y="205"/>
      <point x="2321" y="92"/>
    </contour>
    <contour>
      <point x="2206" y="-18" type="curve" smooth="yes"/>
      <point x="2403" y="-18"/>
      <point x="2527" y="138"/>
      <point x="2527" y="386" type="curve" smooth="yes"/>
      <point x="2527" y="640"/>
      <point x="2403" y="799"/>
      <point x="2206" y="799" type="curve" smooth="yes"/>
      <point x="2009" y="799"/>
      <point x="1885" y="640"/>
      <point x="1885" y="386" type="curve" smooth="yes"/>
      <point x="1885" y="138"/>
      <point x="2009" y="-18"/>
    </contour>
    <component base="percent"/>
  </outline>
</glyph>
<glyph name="guilsinglleft" format="1">
  <advance width="936"/>
  <unicode hex="2039"/>
  <outline>
    <contour>
      <point x="794" y="117" type="line"/>
      <point x="794" y="306" type="line"/>
      <point x="348" y="577" type="line"/>
      <point x="794" y="842" type="line"/>
      <point x="794" y="1029" type="line"/>
      <point x="186" y="646" type="line"/>
      <point x="186" y="499" type="line"/>
    </contour>
  </outline>
</glyph>
<glyph name="trademark" format="1">
  <advance width="1536"/>
  <unicode hex="2122"/>
  <outline>
    <contour>
      <point x="648" y="624" type="line"/>
      <point x="776" y="624" type="line"/>
      <point x="776" y="1288" type="line"/>
      <point x="972" y="624" type="line"/>
      <point x="1150" y="624" type="line"/>
      <point x="1347" y="1288" type="line"/>
      <point x="1347" y="624" type="line"/>
      <point x="1474" y="624" type="line"/>
      <point x="1474" y="1413" type="line"/>
      <point x="1245" y="1413" type="line"/>
      <point x="1061" y="758" type="line"/>
      <point x="877" y="1413" type="line"/>
      <point x="648" y="1413" type="line"/>
    </contour>
    <contour>
      <point x="194" y="624" type="line"/>
      <point x="329" y="624" type="line"/>
      <point x="329" y="1310" type="line"/>
      <point x="538" y="1310" type="line"/>
      <point x="538" y="1413" type="line"/>
      <point x="-11" y="1413" type="line"/>
      <point x="-11" y="1310" type="line"/>
      <point x="194" y="1310" type="line"/>
    </contour>
  </outline>
</glyph>
<glyph name="estimated" format="1">
  <advance width="1163"/>
  <unicode hex="212E"/>
  <outline>
    <contour>
      <point x="624" y="122" type="curve" smooth="yes"/>
      <point x="755" y="122"/>
      <point x="918" y="162"/>
      <point x="1010" y="234" type="curve"/>
      <point x="969" y="324" type="line"/>
      <point x="915" y="285"/>
      <point x="798" y="219"/>
      <point x="657" y="219" type="curve" smooth="yes"/>
      <point x="547" y="219"/>
      <point x="445" y="258"/>
      <point x="373" y="344" type="curve"/>
      <point x="373" y="723" type="line"/>
      <point x="1045" y="723" type="line"/>
      <point x="1050" y="754"/>
      <point x="1053" y="785"/>
      <point x="1053" y="816" type="curve" smooth="yes"/>
      <point x="1053" y="1116"/>
      <point x="914" y="1326"/>
      <point x="615" y="1326" type="curve" smooth="yes"/>
      <point x="273" y="1326"/>
      <point x="110" y="1049"/>
      <point x="110" y="718" type="curve" smooth="yes"/>
      <point x="110" y="395"/>
      <point x="280" y="122"/>
    </contour>
    <contour>
      <point x="373" y="807" type="line"/>
      <point x="373" y="1128" type="line"/>
      <point x="428" y="1189"/>
      <point x="506" y="1226"/>
      <point x="616" y="1226" type="curve" smooth="yes"/>
      <point x="720" y="1226"/>
      <point x="794" y="1187"/>
      <point x="843" y="1123" type="curve"/>
      <point x="843" y="807" type="line"/>
    </contour>
  </outline>
</glyph>
<glyph name="emptyset" format="1">
  <advance width="1756"/>
  <unicode hex="2205"/>
  <outline>
    <contour>
      <point x="375" y="-96" type="line"/>
      <point x="541" y="89" type="line"/>
      <point x="639" y="22"/>
      <point x="759" y="-18"/>
      <point x="887" y="-18" type="curve" smooth="yes"/>
      <point x="1224" y="-18"/>
      <point x="1497" y="255"/>
      <point x="1497" y="592" type="curve" smooth="yes"/>
      <point x="1497" y="745"/>
      <point x="1441" y="884"/>
      <point x="1348" y="991" type="curve"/>
      <point x="1509" y="1171" type="line"/>
      <point x="1415" y="1254" type="line"/>
      <point x="1257" y="1077" type="line"/>
      <point x="1154" y="1156"/>
      <point x="1026" y="1202"/>
      <point x="887" y="1202" type="curve" smooth="yes"/>
      <point x="550" y="1202"/>
      <point x="277" y="929"/>
      <point x="277" y="592" type="curve" smooth="yes"/>
      <point x="277" y="429"/>
      <point x="341" y="281"/>
      <point x="445" y="171" type="curve"/>
      <point x="280" y="-13" type="line"/>
    </contour>
    <contour>
      <point x="550" y="289" type="line"/>
      <point x="481" y="370"/>
      <point x="441" y="477"/>
      <point x="441" y="592" type="curve" smooth="yes"/>
      <point x="441" y="838"/>
      <point x="623" y="1047"/>
      <point x="887" y="1047" type="curve" smooth="yes"/>
      <point x="990" y="1047"/>
      <point x="1081" y="1015"/>
      <point x="1153" y="962" type="curve"/>
    </contour>
    <contour>
      <point x="887" y="137" type="curve" smooth="yes"/>
      <point x="795" y="137"/>
      <point x="713" y="162"/>
      <point x="645" y="206" type="curve"/>
      <point x="1242" y="873" type="line"/>
      <point x="1300" y="795"/>
      <point x="1333" y="697"/>
      <point x="1333" y="592" type="curve" smooth="yes"/>
      <point x="1333" y="346"/>
      <point x="1151" y="137"/>
    </contour>
  </outline>
</glyph>
<glyph name="Delta" format="1">
  <advance width="1416"/>
  <unicode hex="2206"/>
  <outline>
    <contour>
      <point x="37" y="0" type="line"/>
      <point x="1369" y="0" type="line"/>
      <point x="833" y="1579" type="line"/>
      <point x="563" y="1579" type="line"/>
    </contour>
    <contour>
      <point x="298" y="165" type="line"/>
      <point x="703" y="1460" type="line"/>
      <point x="1103" y="165" type="line"/>
    </contour>
    <contour>
      <point x="702" y="1578" type="move" name="top"/>
    </contour>
  </outline>
</glyph>
<glyph name="minus" format="1">
  <advance width="1008"/>
  <unicode hex="2212"/>
  <outline>
    <contour>
      <point x="160" y="508" type="line"/>
      <point x="842" y="508" type="line"/>
      <point x="842" y="639" type="line"/>
      <point x="160" y="639" type="line"/>
    </contour>
  </outline>
</glyph>
<glyph name="notequal" format="1">
  <advance width="912"/>
  <unicode hex="2260"/>
  <outline>
    <contour>
      <point x="281" y="-132" type="line"/>
      <point x="438.581" y="330" type="line"/>
      <point x="801" y="330" type="line"/>
      <point x="801" y="461" type="line"/>
      <point x="483.264" y="461" type="line"/>
      <point x="536.814" y="618" type="line"/>
      <point x="801" y="618" type="line"/>
      <point x="801" y="749" type="line"/>
      <point x="581.496" y="749" type="line"/>
      <point x="721" y="1158" type="line"/>
      <point x="627" y="1197" type="line"/>
      <point x="474.194" y="749" type="line"/>
      <point x="133" y="749" type="line"/>
      <point x="133" y="618" type="line"/>
      <point x="429.512" y="618" type="line"/>
      <point x="375.961" y="461" type="line"/>
      <point x="133" y="461" type="line"/>
      <point x="133" y="330" type="line"/>
      <point x="331.279" y="330" type="line"/>
      <point x="187" y="-93" type="line"/>
    </contour>
  </outline>
</glyph>
<glyph name="lessequal" format="1">
  <advance width="1454"/>
  <unicode hex="2264"/>
  <outline>
    <contour>
      <point x="1165" y="360" type="line"/>
      <point x="1244" y="480" type="line"/>
      <point x="516" y="863" type="line"/>
      <point x="1244" y="1246" type="line"/>
      <point x="1165" y="1366" type="line"/>
      <point x="210" y="863" type="line"/>
    </contour>
    <contour>
      <point x="318" y="0" type="line"/>
      <point x="1226" y="0" type="line"/>
      <point x="1226" y="143" type="line"/>
      <point x="318" y="143" type="line"/>
    </contour>
  </outline>
</glyph>
<glyph name="uniFB02" format="1">
  <advance width="1392"/>
  <unicode hex="FB02"/>
  <outline>
    <contour>
      <point x="253" y="0" type="line"/>
      <point x="443" y="0" type="line"/>
      <point x="443" y="1045" type="line"/>
      <point x="790" y="1045" type="line"/>
      <point x="790" y="1168" type="line"/>
      <point x="443" y="1168" type="line"/>
      <point x="443" y="1252" type="line" smooth="yes"/>
      <point x="443" y="1450"/>
      <point x="581" y="1509"/>
      <point x="739" y="1509" type="curve" smooth="yes"/>
      <point x="820" y="1509"/>
      <point x="905" y="1494"/>
      <point x="981" y="1474" type="curve"/>
      <point x="981" y="0" type="line"/>
      <point x="1167" y="0" type="line"/>
      <point x="1167" y="1569" type="line"/>
      <point x="1012" y="1621"/>
      <point x="858" y="1650"/>
      <point x="722" y="1650" type="curve" smooth="yes"/>
      <point x="452" y="1650"/>
      <point x="253" y="1536"/>
      <point x="253" y="1260" type="curve" smooth="yes"/>
      <point x="253" y="1168" type="line"/>
      <point x="53" y="1168" type="line"/>
      <point x="53" y="1045" type="line"/>
      <point x="253" y="1045" type="line"/>
    </contour>
  </outline>
</glyph>
<glyph name="fj" format="1">
  <advance width="1308"/>
  <outline>
    <contour>
      <point x="771" y="-373" type="line"/>
      <point x="1009" y="-315"/>
      <point x="1102" y="-68"/>
      <point x="1102" y="154" type="curve" smooth="yes"/>
      <point x="1102" y="1169" type="line"/>
      <point x="429" y="1169" type="line"/>
      <point x="429" y="1402"/>
      <point x="440" y="1529"/>
      <point x="594" y="1529" type="curve" smooth="yes"/>
      <point x="636" y="1529"/>
      <point x="692" y="1508"/>
      <point x="766" y="1458" type="curve"/>
      <point x="820" y="1578" type="line"/>
      <point x="715" y="1638"/>
      <point x="629" y="1665"/>
      <point x="559" y="1665" type="curve" smooth="yes"/>
      <point x="325" y="1665"/>
      <point x="239" y="1492"/>
      <point x="239" y="1169" type="curve"/>
      <point x="44" y="1169" type="line"/>
      <point x="44" y="1064" type="line"/>
      <point x="239" y="1064" type="line"/>
      <point x="239" y="0" type="line"/>
      <point x="429" y="0" type="line"/>
      <point x="429" y="1064" type="line"/>
      <point x="912" y="1064" type="line"/>
      <point x="912" y="176" type="line" smooth="yes"/>
      <point x="912" y="-14"/>
      <point x="898" y="-147"/>
      <point x="724" y="-258" type="curve"/>
    </contour>
    <contour>
      <point x="1006" y="1347" type="curve" smooth="yes"/>
      <point x="1071" y="1347"/>
      <point x="1114" y="1400"/>
      <point x="1114" y="1462" type="curve" smooth="yes"/>
      <point x="1114" y="1524"/>
      <point x="1071" y="1577"/>
      <point x="1006" y="1577" type="curve" smooth="yes"/>
      <point x="943" y="1577"/>
      <point x="894" y="1524"/>
      <point x="894" y="1462" type="curve" smooth="yes"/>
      <point x="894" y="1399"/>
      <point x="942" y="1347"/>
    </contour>
  </outline>
</glyph>
